<?xml version="1.0" encoding="UTF-8" standalone="no"?>
<!-- Created with Inkscape (http://www.inkscape.org/) -->

<svg
   xmlns:dc="http://purl.org/dc/elements/1.1/"
   xmlns:cc="http://creativecommons.org/ns#"
   xmlns:rdf="http://www.w3.org/1999/02/22-rdf-syntax-ns#"
   xmlns:svg="http://www.w3.org/2000/svg"
   xmlns="http://www.w3.org/2000/svg"
   xmlns:sodipodi="http://sodipodi.sourceforge.net/DTD/sodipodi-0.dtd"
   xmlns:inkscape="http://www.inkscape.org/namespaces/inkscape"
   version="1.1"
   id="svg3835"
   xml:space="preserve"
   width="306.50494"
   height="84.381332"
   viewBox="0 0 306.50494 84.381331"
   sodipodi:docname="perun_3.svg"
   inkscape:version="0.92.3 (d244b95, 2018-08-02)"><metadata
     id="metadata3841"><rdf:RDF><cc:Work
         rdf:about=""><dc:format>image/svg+xml</dc:format><dc:type
           rdf:resource="http://purl.org/dc/dcmitype/StillImage" /><dc:title></dc:title></cc:Work></rdf:RDF></metadata><defs
     id="defs3839"><linearGradient
       x1="0"
       y1="0"
       x2="1"
       y2="0"
       gradientUnits="userSpaceOnUse"
       gradientTransform="matrix(-2.8e-4,57.86107,-58.45068,-2.9e-4,78.7238,23.5718)"
       spreadMethod="pad"
       id="linearGradient3861"><stop
         style="stop-opacity:1;stop-color:#12619f"
         offset="0"
         id="stop3855" /><stop
         style="stop-opacity:1;stop-color:#12619f"
         offset="0.9"
         id="stop3857" /><stop
         style="stop-opacity:1;stop-color:#12619f"
         offset="1"
         id="stop3859" /></linearGradient><linearGradient
       x1="0.19"
       y1="0"
       x2="0.81"
       y2="0"
       gradientUnits="userSpaceOnUse"
       gradientTransform="matrix(44.01056,50.01916,-47.68948,41.96074,52.9183,6.156)"
       spreadMethod="pad"
       id="linearGradient3881"><stop
         style="stop-opacity:1;stop-color:#fab20d"
         offset="0"
         id="stop3875" /><stop
         style="stop-opacity:1;stop-color:#fab20d"
         offset="0.45"
         id="stop3877" /><stop
         style="stop-opacity:1;stop-color:#fab20d"
         offset="1"
         id="stop3879" /></linearGradient></defs><sodipodi:namedview
     pagecolor="#ffffff"
     bordercolor="#666666"
     borderopacity="1"
     objecttolerance="10"
     gridtolerance="10"
     guidetolerance="10"
     inkscape:pageopacity="0"
     inkscape:pageshadow="2"
     inkscape:window-width="1853"
     inkscape:window-height="1025"
     id="namedview3837"
     showgrid="false"
     fit-margin-top="0"
     fit-margin-left="0"
     fit-margin-right="0"
     fit-margin-bottom="0"
     inkscape:zoom="2.8284271"
     inkscape:cx="198.7143"
     inkscape:cy="26.611435"
     inkscape:window-x="67"
     inkscape:window-y="27"
     inkscape:window-maximized="1"
     inkscape:current-layer="g3843" /><g
     id="g3843"
     inkscape:groupmode="layer"
     inkscape:label="perun_3"
     transform="matrix(1.3333333,0,0,-1.3333333,-27.030799,111.73413)"><g
       id="g3845"><g
         id="g3847"><g
           id="g3853"><path
             d="M 36.1293,81.4323 49.1357,81.4144 62.142,81.3966 70.4327,71.0634 78.7232,60.7303 76.055,47.8633 73.3867,34.996 61.7689,29.2842 50.1511,23.5721 38.3321,29.3162 26.5133,35.0606 23.3932,47.9358 20.2731,60.8111 28.201,71.1218 Z"
             style="fill:url(#linearGradient3861);fill-rule:evenodd;stroke:none"
             id="path3863"
             inkscape:connector-curvature="0" /></g></g></g><g
       id="g3865"><g
         id="g3867"><g
           id="g3873"><path
             d="M 47.8752,83.8006 65.5311,83.778 53.1309,63.4456 64.0757,65.1875 51.3901,44.4376 61.9186,46.3453 36.6262,20.5146 l 8.941,23.0491 -7.564,-1.3244 8.4583,20.0126 -7.3043,-1.2169 z"
             style="fill:url(#linearGradient3881);fill-rule:evenodd;stroke:none"
             id="path3883"
             inkscape:connector-curvature="0" /></g></g></g><path
       d="m 118.2555,54.2676 c -0.005,-2.4579 -1.2019,-4.172 -3.5921,-5.154 -1.7371,-0.7055 -4.3622,-1.053 -7.8894,-1.053 -0.8189,0 -1.9579,0.0204 -3.4432,0.0612 -1.4721,0.0411 -2.5413,0.0615 -3.1938,0.0615 l -0.0207,-10.9111 h -9.3175 l 0.0774,38.882 h 9.3175 l -0.002,-1.1044 c 2.1668,0.2353 4.3472,0.4808 6.5137,0.7464 2.7363,0.3172 4.9028,0.4807 6.5135,0.4807 3.3882,0 5.08,-1.2271 5.0754,-3.6913 l -0.0385,-18.318 z m -9.3555,1.8813 0.0309,14.279 -8.7483,-0.1125 -0.0349,-16.4367 h 5.7765 c 1.9854,0 2.973,0.7568 2.9758,2.2702 z m 42.3006,-15.084 c -0.004,-2.4947 -1.7569,-3.7425 -5.2557,-3.7425 h -16.066 c -3.4988,0 -5.2463,1.2475 -5.2418,3.7425 l 0.0425,22.7722 c 0.005,2.495 1.7567,3.7426 5.2557,3.7426 h 16.066 c 3.4993,0 5.2466,-1.2476 5.2421,-3.7426 l -0.021,-11.1152 -2.5586,-1.8916 h -15.0939 l -0.0159,-8.477 h 8.7483 l 0.009,5.0309 h 8.9011 l -0.0119,-6.3193 z m -8.8742,14.2339 0.0136,7.2499 h -8.7483 l -0.0133,-7.2499 z m 42.2212,-0.358 h -9.2338 l 0.0127,6.9126 -7.3596,-0.1123 -0.0456,-24.4187 h -9.3175 l 0.0567,30.2573 h 9.3175 l -0.002,-1.1044 c 1.9307,0.2557 3.8475,0.5113 5.7362,0.7772 2.3057,0.2965 4.2361,0.4499 5.7776,0.4499 3.3882,0 5.0797,-1.2271 5.0751,-3.6913 l -0.017,-9.0703 z M 215.267,37.3224 h -9.2756 l 0.002,1.053 c -2.139,-0.2659 -4.3055,-0.5213 -6.4723,-0.7874 -2.6249,-0.2965 -4.8053,-0.4499 -6.5132,-0.4499 -3.3882,0 -5.08,1.2478 -5.0754,3.7528 l 0.0501,26.6888 h 9.2339 l -0.0459,-24.562 8.8316,0.1435 0.0456,24.4185 h 9.2759 z m 34.8349,0 h -9.3591 l 0.0459,24.531 -8.748,-0.1123 -0.0459,-24.4187 h -9.3175 l 0.0567,30.2573 h 9.3175 l -0.002,-1.1044 c 2.1665,0.2557 4.333,0.5011 6.472,0.7466 2.6527,0.3169 4.847,0.4805 6.5549,0.4805 3.3882,0 5.0802,-1.2271 5.0754,-3.6913 z"
       style="fill:#39434a;fill-opacity:1;fill-rule:nonzero;stroke:none"
       id="path3885"
       inkscape:connector-curvature="0" /></g></svg>